# xmcd CD database file
#
# Track frame offsets:
#	150
#	12534
#	103716
#	124550
#	143741
#	163779
#	179630
#	200332
#	257489
#
# Disc length: 3778 seconds
#
# Revision: 0
# Processed by: cddbd v1.5.2PL0 Copyright (c) Steve Scherf et al.
# Submitted via: CDex 1.51
#
DISCID=7a0ec009
DTITLE=Matthew Shipp - SALUTE TO 100001 STARS - A Tribute to Jean Genet
DYEAR=2006
DGENRE=Jazz
TTITLE0=CHICAGO 68
TTITLE1=MARCHE FUNEBRE
TTITLE2=FLOWERS
TTITLE3=ALBERTO'S WORKSHOP
TTITLE4=METTRAY
TTITLE5=BLACK PANTHERS
TTITLE6=ABDALLAH
TTITLE7=LE ROUGE ET LE NOIR
TTITLE8=LARACHE
EXTD=YEAR: 2006
EXTT0=
EXTT1=
EXTT2=
EXTT3=
EXTT4=
EXTT5=
EXTT6=
EXTT7=
EXTT8=
PLAYORDER=
